# xmcd CD database file
#
# Track frame offsets:
#	150
#	28651
#	50219
#	66376
#	80326
#	108376
#
# Disc length: 1762 seconds
#
# Revision: 0
# Processed by: cddbd v1.5.1PL0 Copyright (c) Steve Scherf et al.
# Submitted via: CDex 1.50
#
DISCID=5006e006
DTITLE=Caroline's Capuchin - Caroline's Capuchin
DYEAR=2004
DGENRE=Jazz
TTITLE0=Dirty New
TTITLE1=Red Room
TTITLE2=Span-Wah
TTITLE3=The Congress Of The Crow
TTITLE4=Cairo Dead and Breakfast
TTITLE5=Countdown To A Familiar Face
EXTD=YEAR: 2004
EXTT0=
EXTT1=
EXTT2=
EXTT3=
EXTT4=
EXTT5=
PLAYORDER=
